<mxfile host="Electron" agent="Mozilla/5.0 (Windows NT 10.0; Win64; x64) AppleWebKit/537.36 (KHTML, like Gecko) draw.io/24.7.8 Chrome/128.0.6613.36 Electron/32.0.1 Safari/537.36" version="24.7.8" pages="2">
  <diagram id="5CwPGjUbyQKT_4r2Ptqw" name="functions">
    <mxGraphModel dx="882" dy="677" grid="1" gridSize="10" guides="1" tooltips="1" connect="1" arrows="1" fold="1" page="1" pageScale="1" pageWidth="1169" pageHeight="827" math="0" shadow="0">
      <root>
        <mxCell id="0" />
        <mxCell id="1" parent="0" />
        <mxCell id="KOdq0aEJ3bhY2r8L5KYj-3" style="edgeStyle=orthogonalEdgeStyle;rounded=0;orthogonalLoop=1;jettySize=auto;html=1;exitX=0;exitY=0.5;exitDx=0;exitDy=0;endArrow=none;endFill=0;startArrow=block;startFill=1;" parent="1" source="KOdq0aEJ3bhY2r8L5KYj-1" edge="1">
          <mxGeometry relative="1" as="geometry">
            <mxPoint x="360" y="110" as="targetPoint" />
          </mxGeometry>
        </mxCell>
        <mxCell id="UtDX9IJsaf98Vin3WjMV-13" style="edgeStyle=orthogonalEdgeStyle;rounded=0;orthogonalLoop=1;jettySize=auto;html=1;exitX=1;exitY=0.5;exitDx=0;exitDy=0;endArrow=block;endFill=1;" parent="1" source="KOdq0aEJ3bhY2r8L5KYj-1" edge="1">
          <mxGeometry relative="1" as="geometry">
            <mxPoint x="600" y="110" as="targetPoint" />
          </mxGeometry>
        </mxCell>
        <mxCell id="KOdq0aEJ3bhY2r8L5KYj-1" value="f2c(fahrenheit)" style="rounded=0;whiteSpace=wrap;html=1;" parent="1" vertex="1">
          <mxGeometry x="420" y="80" width="120" height="60" as="geometry" />
        </mxCell>
        <mxCell id="KOdq0aEJ3bhY2r8L5KYj-5" value="&lt;font face=&quot;Lucida Console&quot;&gt;&lt;span style=&quot;font-size: 12px;&quot;&gt;32.5&lt;/span&gt;&lt;/font&gt;" style="text;html=1;strokeColor=none;fillColor=none;align=left;verticalAlign=middle;whiteSpace=wrap;rounded=0;fontFamily=Helvetica;fontSize=11;fontColor=default;" parent="1" vertex="1">
          <mxGeometry x="360" y="80" width="60" height="30" as="geometry" />
        </mxCell>
        <mxCell id="KOdq0aEJ3bhY2r8L5KYj-8" style="edgeStyle=orthogonalEdgeStyle;rounded=0;orthogonalLoop=1;jettySize=auto;html=1;exitX=0;exitY=0.5;exitDx=0;exitDy=0;endArrow=none;endFill=0;startArrow=block;startFill=1;" parent="1" source="KOdq0aEJ3bhY2r8L5KYj-10" edge="1">
          <mxGeometry relative="1" as="geometry">
            <mxPoint x="680" y="110" as="targetPoint" />
          </mxGeometry>
        </mxCell>
        <mxCell id="KOdq0aEJ3bhY2r8L5KYj-9" style="edgeStyle=orthogonalEdgeStyle;shape=connector;rounded=0;orthogonalLoop=1;jettySize=auto;html=1;exitX=1;exitY=0.5;exitDx=0;exitDy=0;labelBackgroundColor=default;strokeColor=default;fontFamily=Helvetica;fontSize=11;fontColor=default;endArrow=block;endFill=1;" parent="1" source="KOdq0aEJ3bhY2r8L5KYj-10" edge="1">
          <mxGeometry relative="1" as="geometry">
            <mxPoint x="920" y="110" as="targetPoint" />
          </mxGeometry>
        </mxCell>
        <mxCell id="KOdq0aEJ3bhY2r8L5KYj-10" value="&lt;font style=&quot;font-size: 12px;&quot;&gt;c2f(c&lt;span style=&quot;color: rgb(95, 99, 104); font-family: Arial, sans-serif; text-align: left; background-color: rgb(255, 255, 255);&quot;&gt;elsius&lt;/span&gt;)&lt;/font&gt;" style="rounded=0;whiteSpace=wrap;html=1;" parent="1" vertex="1">
          <mxGeometry x="740" y="80" width="120" height="60" as="geometry" />
        </mxCell>
        <mxCell id="KOdq0aEJ3bhY2r8L5KYj-11" value="&lt;font style=&quot;font-size: 12px;&quot; face=&quot;Lucida Console&quot;&gt;0.3&lt;/font&gt;" style="text;html=1;strokeColor=none;fillColor=none;align=left;verticalAlign=middle;whiteSpace=wrap;rounded=0;fontFamily=Helvetica;fontSize=11;fontColor=default;" parent="1" vertex="1">
          <mxGeometry x="680" y="80" width="60" height="30" as="geometry" />
        </mxCell>
        <mxCell id="KOdq0aEJ3bhY2r8L5KYj-12" value="&lt;font style=&quot;font-size: 12px;&quot; face=&quot;Lucida Console&quot;&gt;32.5&lt;/font&gt;" style="text;html=1;strokeColor=none;fillColor=none;align=right;verticalAlign=middle;whiteSpace=wrap;rounded=0;fontFamily=Helvetica;fontSize=11;fontColor=default;" parent="1" vertex="1">
          <mxGeometry x="860" y="80" width="60" height="30" as="geometry" />
        </mxCell>
        <mxCell id="trtM3cNy_Q_8wwAv1gUO-1" style="edgeStyle=orthogonalEdgeStyle;rounded=0;orthogonalLoop=1;jettySize=auto;html=1;exitX=0;exitY=0.5;exitDx=0;exitDy=0;endArrow=none;endFill=0;startArrow=block;startFill=1;" parent="1" source="trtM3cNy_Q_8wwAv1gUO-3" edge="1">
          <mxGeometry relative="1" as="geometry">
            <mxPoint x="360" y="430" as="targetPoint" />
          </mxGeometry>
        </mxCell>
        <mxCell id="trtM3cNy_Q_8wwAv1gUO-2" style="edgeStyle=orthogonalEdgeStyle;shape=connector;rounded=0;orthogonalLoop=1;jettySize=auto;html=1;exitX=1;exitY=0.5;exitDx=0;exitDy=0;labelBackgroundColor=default;strokeColor=default;fontFamily=Helvetica;fontSize=11;fontColor=default;endArrow=block;endFill=1;" parent="1" source="trtM3cNy_Q_8wwAv1gUO-3" edge="1">
          <mxGeometry relative="1" as="geometry">
            <mxPoint x="600" y="430" as="targetPoint" />
          </mxGeometry>
        </mxCell>
        <mxCell id="trtM3cNy_Q_8wwAv1gUO-3" value="&lt;font style=&quot;font-size: 12px;&quot;&gt;fi2cm(feet, inches)&lt;/font&gt;" style="rounded=0;whiteSpace=wrap;html=1;" parent="1" vertex="1">
          <mxGeometry x="420" y="400" width="120" height="60" as="geometry" />
        </mxCell>
        <mxCell id="trtM3cNy_Q_8wwAv1gUO-4" value="&lt;font style=&quot;font-size: 12px;&quot; face=&quot;Lucida Console&quot;&gt;6, 6&lt;/font&gt;" style="text;html=1;strokeColor=none;fillColor=none;align=left;verticalAlign=middle;whiteSpace=wrap;rounded=0;fontFamily=Helvetica;fontSize=11;fontColor=default;" parent="1" vertex="1">
          <mxGeometry x="360" y="400" width="60" height="30" as="geometry" />
        </mxCell>
        <mxCell id="trtM3cNy_Q_8wwAv1gUO-5" value="&lt;font style=&quot;font-size: 12px;&quot; face=&quot;Lucida Console&quot;&gt;198.1&lt;/font&gt;" style="text;html=1;strokeColor=none;fillColor=none;align=right;verticalAlign=middle;whiteSpace=wrap;rounded=0;fontFamily=Helvetica;fontSize=11;fontColor=default;" parent="1" vertex="1">
          <mxGeometry x="540" y="399" width="60" height="30" as="geometry" />
        </mxCell>
        <mxCell id="trtM3cNy_Q_8wwAv1gUO-6" style="edgeStyle=orthogonalEdgeStyle;rounded=0;orthogonalLoop=1;jettySize=auto;html=1;exitX=0;exitY=0.5;exitDx=0;exitDy=0;endArrow=none;endFill=0;startArrow=block;startFill=1;" parent="1" source="trtM3cNy_Q_8wwAv1gUO-8" edge="1">
          <mxGeometry relative="1" as="geometry">
            <mxPoint x="680" y="430" as="targetPoint" />
          </mxGeometry>
        </mxCell>
        <mxCell id="trtM3cNy_Q_8wwAv1gUO-7" style="edgeStyle=orthogonalEdgeStyle;shape=connector;rounded=0;orthogonalLoop=1;jettySize=auto;html=1;exitX=1;exitY=0.5;exitDx=0;exitDy=0;labelBackgroundColor=default;strokeColor=default;fontFamily=Helvetica;fontSize=11;fontColor=default;endArrow=block;endFill=1;" parent="1" source="trtM3cNy_Q_8wwAv1gUO-8" edge="1">
          <mxGeometry relative="1" as="geometry">
            <mxPoint x="920" y="430" as="targetPoint" />
          </mxGeometry>
        </mxCell>
        <mxCell id="trtM3cNy_Q_8wwAv1gUO-8" value="&lt;font style=&quot;font-size: 12px;&quot;&gt;cm2fi(centimetres)&lt;/font&gt;" style="rounded=0;whiteSpace=wrap;html=1;" parent="1" vertex="1">
          <mxGeometry x="740" y="400" width="120" height="60" as="geometry" />
        </mxCell>
        <mxCell id="trtM3cNy_Q_8wwAv1gUO-9" value="&lt;font style=&quot;font-size: 12px;&quot; face=&quot;Lucida Console&quot;&gt;198.1&lt;/font&gt;" style="text;html=1;strokeColor=none;fillColor=none;align=left;verticalAlign=middle;whiteSpace=wrap;rounded=0;fontFamily=Helvetica;fontSize=11;fontColor=default;" parent="1" vertex="1">
          <mxGeometry x="680" y="399" width="60" height="30" as="geometry" />
        </mxCell>
        <mxCell id="trtM3cNy_Q_8wwAv1gUO-10" value="&lt;font style=&quot;font-size: 12px;&quot; face=&quot;Lucida Console&quot;&gt;6, 6&lt;/font&gt;" style="text;html=1;strokeColor=none;fillColor=none;align=right;verticalAlign=middle;whiteSpace=wrap;rounded=0;fontFamily=Helvetica;fontSize=11;fontColor=default;" parent="1" vertex="1">
          <mxGeometry x="860" y="399" width="60" height="30" as="geometry" />
        </mxCell>
        <mxCell id="trtM3cNy_Q_8wwAv1gUO-11" style="edgeStyle=orthogonalEdgeStyle;rounded=0;orthogonalLoop=1;jettySize=auto;html=1;exitX=0;exitY=0.5;exitDx=0;exitDy=0;endArrow=none;endFill=0;startArrow=block;startFill=1;" parent="1" source="trtM3cNy_Q_8wwAv1gUO-13" edge="1">
          <mxGeometry relative="1" as="geometry">
            <mxPoint x="360" y="270" as="targetPoint" />
          </mxGeometry>
        </mxCell>
        <mxCell id="trtM3cNy_Q_8wwAv1gUO-12" style="edgeStyle=orthogonalEdgeStyle;shape=connector;rounded=0;orthogonalLoop=1;jettySize=auto;html=1;exitX=1;exitY=0.5;exitDx=0;exitDy=0;labelBackgroundColor=default;strokeColor=default;fontFamily=Helvetica;fontSize=11;fontColor=default;endArrow=block;endFill=1;" parent="1" source="trtM3cNy_Q_8wwAv1gUO-13" edge="1">
          <mxGeometry relative="1" as="geometry">
            <mxPoint x="600" y="270" as="targetPoint" />
          </mxGeometry>
        </mxCell>
        <mxCell id="trtM3cNy_Q_8wwAv1gUO-13" value="m2km(miles)" style="rounded=0;whiteSpace=wrap;html=1;" parent="1" vertex="1">
          <mxGeometry x="420" y="240" width="120" height="60" as="geometry" />
        </mxCell>
        <mxCell id="trtM3cNy_Q_8wwAv1gUO-14" value="&lt;font face=&quot;Lucida Console&quot;&gt;&lt;span style=&quot;font-size: 12px;&quot;&gt;5.5&lt;/span&gt;&lt;/font&gt;" style="text;html=1;strokeColor=none;fillColor=none;align=left;verticalAlign=middle;whiteSpace=wrap;rounded=0;fontFamily=Helvetica;fontSize=11;fontColor=default;" parent="1" vertex="1">
          <mxGeometry x="360" y="240" width="60" height="30" as="geometry" />
        </mxCell>
        <mxCell id="trtM3cNy_Q_8wwAv1gUO-15" value="&lt;font style=&quot;font-size: 12px;&quot; face=&quot;Lucida Console&quot;&gt;8.9&lt;/font&gt;" style="text;html=1;strokeColor=none;fillColor=none;align=right;verticalAlign=middle;whiteSpace=wrap;rounded=0;fontFamily=Helvetica;fontSize=11;fontColor=default;" parent="1" vertex="1">
          <mxGeometry x="540" y="240" width="60" height="30" as="geometry" />
        </mxCell>
        <mxCell id="trtM3cNy_Q_8wwAv1gUO-16" style="edgeStyle=orthogonalEdgeStyle;rounded=0;orthogonalLoop=1;jettySize=auto;html=1;exitX=0;exitY=0.5;exitDx=0;exitDy=0;endArrow=none;endFill=0;startArrow=block;startFill=1;" parent="1" source="trtM3cNy_Q_8wwAv1gUO-18" edge="1">
          <mxGeometry relative="1" as="geometry">
            <mxPoint x="680" y="270" as="targetPoint" />
          </mxGeometry>
        </mxCell>
        <mxCell id="trtM3cNy_Q_8wwAv1gUO-17" style="edgeStyle=orthogonalEdgeStyle;shape=connector;rounded=0;orthogonalLoop=1;jettySize=auto;html=1;exitX=1;exitY=0.5;exitDx=0;exitDy=0;labelBackgroundColor=default;strokeColor=default;fontFamily=Helvetica;fontSize=11;fontColor=default;endArrow=block;endFill=1;" parent="1" source="trtM3cNy_Q_8wwAv1gUO-18" edge="1">
          <mxGeometry relative="1" as="geometry">
            <mxPoint x="920" y="270" as="targetPoint" />
          </mxGeometry>
        </mxCell>
        <mxCell id="trtM3cNy_Q_8wwAv1gUO-18" value="&lt;font style=&quot;font-size: 12px;&quot;&gt;km2m(kilometres)&lt;/font&gt;" style="rounded=0;whiteSpace=wrap;html=1;" parent="1" vertex="1">
          <mxGeometry x="740" y="240" width="120" height="60" as="geometry" />
        </mxCell>
        <mxCell id="trtM3cNy_Q_8wwAv1gUO-19" value="&lt;font style=&quot;font-size: 12px;&quot; face=&quot;Lucida Console&quot;&gt;8.9&lt;/font&gt;" style="text;html=1;strokeColor=none;fillColor=none;align=left;verticalAlign=middle;whiteSpace=wrap;rounded=0;fontFamily=Helvetica;fontSize=11;fontColor=default;" parent="1" vertex="1">
          <mxGeometry x="680" y="240" width="60" height="30" as="geometry" />
        </mxCell>
        <mxCell id="trtM3cNy_Q_8wwAv1gUO-20" value="&lt;font style=&quot;font-size: 12px;&quot; face=&quot;Lucida Console&quot;&gt;5.5&lt;/font&gt;" style="text;html=1;strokeColor=none;fillColor=none;align=right;verticalAlign=middle;whiteSpace=wrap;rounded=0;fontFamily=Helvetica;fontSize=11;fontColor=default;" parent="1" vertex="1">
          <mxGeometry x="860" y="240" width="60" height="30" as="geometry" />
        </mxCell>
        <mxCell id="UtDX9IJsaf98Vin3WjMV-1" style="edgeStyle=orthogonalEdgeStyle;rounded=0;orthogonalLoop=1;jettySize=auto;html=1;exitX=0;exitY=0.5;exitDx=0;exitDy=0;endArrow=none;endFill=0;startArrow=block;startFill=1;" parent="1" source="UtDX9IJsaf98Vin3WjMV-3" edge="1">
          <mxGeometry relative="1" as="geometry">
            <mxPoint x="360" y="590" as="targetPoint" />
          </mxGeometry>
        </mxCell>
        <mxCell id="UtDX9IJsaf98Vin3WjMV-15" style="edgeStyle=orthogonalEdgeStyle;shape=connector;rounded=0;orthogonalLoop=1;jettySize=auto;html=1;exitX=1;exitY=0.5;exitDx=0;exitDy=0;strokeColor=default;align=center;verticalAlign=middle;fontFamily=Helvetica;fontSize=11;fontColor=default;labelBackgroundColor=default;endArrow=block;endFill=1;" parent="1" source="UtDX9IJsaf98Vin3WjMV-3" edge="1">
          <mxGeometry relative="1" as="geometry">
            <mxPoint x="600" y="590" as="targetPoint" />
          </mxGeometry>
        </mxCell>
        <mxCell id="UtDX9IJsaf98Vin3WjMV-3" value="&lt;font style=&quot;font-size: 12px;&quot;&gt;sl2kg(stones, lbs)&lt;/font&gt;" style="rounded=0;whiteSpace=wrap;html=1;" parent="1" vertex="1">
          <mxGeometry x="420" y="560" width="120" height="60" as="geometry" />
        </mxCell>
        <mxCell id="UtDX9IJsaf98Vin3WjMV-4" value="&lt;font style=&quot;font-size: 12px;&quot; face=&quot;Lucida Console&quot;&gt;10, 7&lt;/font&gt;" style="text;html=1;strokeColor=none;fillColor=none;align=left;verticalAlign=middle;whiteSpace=wrap;rounded=0;fontFamily=Helvetica;fontSize=11;fontColor=default;" parent="1" vertex="1">
          <mxGeometry x="360" y="560" width="60" height="30" as="geometry" />
        </mxCell>
        <mxCell id="UtDX9IJsaf98Vin3WjMV-6" style="edgeStyle=orthogonalEdgeStyle;rounded=0;orthogonalLoop=1;jettySize=auto;html=1;exitX=0;exitY=0.5;exitDx=0;exitDy=0;endArrow=none;endFill=0;startArrow=block;startFill=1;" parent="1" source="UtDX9IJsaf98Vin3WjMV-8" edge="1">
          <mxGeometry relative="1" as="geometry">
            <mxPoint x="680" y="590" as="targetPoint" />
          </mxGeometry>
        </mxCell>
        <mxCell id="UtDX9IJsaf98Vin3WjMV-7" style="edgeStyle=orthogonalEdgeStyle;shape=connector;rounded=0;orthogonalLoop=1;jettySize=auto;html=1;exitX=1;exitY=0.5;exitDx=0;exitDy=0;labelBackgroundColor=default;strokeColor=default;fontFamily=Helvetica;fontSize=11;fontColor=default;endArrow=block;endFill=1;" parent="1" source="UtDX9IJsaf98Vin3WjMV-8" edge="1">
          <mxGeometry relative="1" as="geometry">
            <mxPoint x="920" y="590" as="targetPoint" />
          </mxGeometry>
        </mxCell>
        <mxCell id="UtDX9IJsaf98Vin3WjMV-8" value="&lt;font style=&quot;font-size: 12px;&quot;&gt;kg2sl(kg)&lt;/font&gt;" style="rounded=0;whiteSpace=wrap;html=1;" parent="1" vertex="1">
          <mxGeometry x="740" y="560" width="120" height="60" as="geometry" />
        </mxCell>
        <mxCell id="UtDX9IJsaf98Vin3WjMV-9" value="&lt;font style=&quot;font-size: 12px;&quot; face=&quot;Lucida Console&quot;&gt;66.7&lt;/font&gt;" style="text;html=1;strokeColor=none;fillColor=none;align=left;verticalAlign=middle;whiteSpace=wrap;rounded=0;fontFamily=Helvetica;fontSize=11;fontColor=default;" parent="1" vertex="1">
          <mxGeometry x="680" y="560" width="60" height="30" as="geometry" />
        </mxCell>
        <mxCell id="UtDX9IJsaf98Vin3WjMV-10" value="&lt;font style=&quot;font-size: 12px;&quot; face=&quot;Lucida Console&quot;&gt;10, 7&lt;/font&gt;" style="text;html=1;strokeColor=none;fillColor=none;align=right;verticalAlign=middle;whiteSpace=wrap;rounded=0;fontFamily=Helvetica;fontSize=11;fontColor=default;" parent="1" vertex="1">
          <mxGeometry x="860" y="560" width="60" height="30" as="geometry" />
        </mxCell>
        <mxCell id="KOdq0aEJ3bhY2r8L5KYj-6" value="&lt;font style=&quot;font-size: 12px;&quot; face=&quot;Lucida Console&quot;&gt;0.3&lt;/font&gt;" style="text;html=1;strokeColor=none;fillColor=none;align=right;verticalAlign=middle;whiteSpace=wrap;rounded=0;fontFamily=Helvetica;fontSize=11;fontColor=default;" parent="1" vertex="1">
          <mxGeometry x="540" y="80" width="60" height="30" as="geometry" />
        </mxCell>
        <mxCell id="UtDX9IJsaf98Vin3WjMV-5" value="&lt;font style=&quot;font-size: 12px;&quot; face=&quot;Lucida Console&quot;&gt;66.7&lt;/font&gt;" style="text;html=1;strokeColor=none;fillColor=none;align=right;verticalAlign=middle;whiteSpace=wrap;rounded=0;fontFamily=Helvetica;fontSize=11;fontColor=default;" parent="1" vertex="1">
          <mxGeometry x="540" y="560" width="60" height="30" as="geometry" />
        </mxCell>
      </root>
    </mxGraphModel>
  </diagram>
  <diagram id="JhtlfFd-z6uTGVz7A-Ey" name="Page-1">
    <mxGraphModel dx="870" dy="655" grid="1" gridSize="10" guides="1" tooltips="1" connect="1" arrows="1" fold="1" page="1" pageScale="1" pageWidth="1169" pageHeight="827" math="0" shadow="0">
      <root>
        <mxCell id="0" />
        <mxCell id="1" parent="0" />
        <mxCell id="RjlD7E5bPbX68Lo8WS0Y-27" style="edgeStyle=orthogonalEdgeStyle;rounded=0;orthogonalLoop=1;jettySize=auto;html=1;exitX=0.5;exitY=1;exitDx=0;exitDy=0;startArrow=none;startFill=0;endArrow=none;endFill=0;" edge="1" parent="1" source="RjlD7E5bPbX68Lo8WS0Y-1">
          <mxGeometry relative="1" as="geometry">
            <mxPoint x="540" y="200" as="targetPoint" />
          </mxGeometry>
        </mxCell>
        <mxCell id="RjlD7E5bPbX68Lo8WS0Y-1" value="Convert Fahrenheit to Celsius" style="rounded=0;whiteSpace=wrap;html=1;" vertex="1" parent="1">
          <mxGeometry x="480" y="120" width="120" height="60" as="geometry" />
        </mxCell>
        <mxCell id="RjlD7E5bPbX68Lo8WS0Y-4" style="edgeStyle=orthogonalEdgeStyle;rounded=0;orthogonalLoop=1;jettySize=auto;html=1;exitX=0.25;exitY=1;exitDx=0;exitDy=0;endArrow=none;endFill=0;startArrow=block;startFill=1;" edge="1" parent="1" source="RjlD7E5bPbX68Lo8WS0Y-2">
          <mxGeometry relative="1" as="geometry">
            <mxPoint x="210" y="360" as="targetPoint" />
          </mxGeometry>
        </mxCell>
        <mxCell id="RjlD7E5bPbX68Lo8WS0Y-18" style="edgeStyle=orthogonalEdgeStyle;rounded=0;orthogonalLoop=1;jettySize=auto;html=1;exitX=0.5;exitY=0;exitDx=0;exitDy=0;startArrow=none;startFill=0;endArrow=none;endFill=0;" edge="1" parent="1" source="RjlD7E5bPbX68Lo8WS0Y-2">
          <mxGeometry relative="1" as="geometry">
            <mxPoint x="240" y="200" as="targetPoint" />
          </mxGeometry>
        </mxCell>
        <mxCell id="RjlD7E5bPbX68Lo8WS0Y-2" value="Accept Fahrenheit&amp;nbsp;value" style="rounded=0;whiteSpace=wrap;html=1;" vertex="1" parent="1">
          <mxGeometry x="180" y="240" width="120" height="60" as="geometry" />
        </mxCell>
        <mxCell id="RjlD7E5bPbX68Lo8WS0Y-19" style="edgeStyle=orthogonalEdgeStyle;rounded=0;orthogonalLoop=1;jettySize=auto;html=1;exitX=0.5;exitY=0;exitDx=0;exitDy=0;startArrow=none;startFill=0;endArrow=none;endFill=0;" edge="1" parent="1" source="RjlD7E5bPbX68Lo8WS0Y-3">
          <mxGeometry relative="1" as="geometry">
            <mxPoint x="360" y="200" as="targetPoint" />
          </mxGeometry>
        </mxCell>
        <mxCell id="RjlD7E5bPbX68Lo8WS0Y-3" value="Subtract 32" style="rounded=0;whiteSpace=wrap;html=1;" vertex="1" parent="1">
          <mxGeometry x="300" y="360" width="120" height="60" as="geometry" />
        </mxCell>
        <mxCell id="RjlD7E5bPbX68Lo8WS0Y-26" style="edgeStyle=orthogonalEdgeStyle;rounded=0;orthogonalLoop=1;jettySize=auto;html=1;exitX=0.5;exitY=0;exitDx=0;exitDy=0;startArrow=none;startFill=0;endArrow=none;endFill=0;" edge="1" parent="1" source="RjlD7E5bPbX68Lo8WS0Y-5">
          <mxGeometry relative="1" as="geometry">
            <mxPoint x="480" y="200" as="targetPoint" />
          </mxGeometry>
        </mxCell>
        <mxCell id="RjlD7E5bPbX68Lo8WS0Y-5" value="Multiply by 5" style="rounded=0;whiteSpace=wrap;html=1;" vertex="1" parent="1">
          <mxGeometry x="420" y="240" width="120" height="60" as="geometry" />
        </mxCell>
        <mxCell id="RjlD7E5bPbX68Lo8WS0Y-20" style="edgeStyle=orthogonalEdgeStyle;rounded=0;orthogonalLoop=1;jettySize=auto;html=1;exitX=0.5;exitY=0;exitDx=0;exitDy=0;startArrow=none;startFill=0;endArrow=none;endFill=0;" edge="1" parent="1" source="RjlD7E5bPbX68Lo8WS0Y-7">
          <mxGeometry relative="1" as="geometry">
            <mxPoint x="600" y="200" as="targetPoint" />
          </mxGeometry>
        </mxCell>
        <mxCell id="RjlD7E5bPbX68Lo8WS0Y-7" value="Divide by 9" style="rounded=0;whiteSpace=wrap;html=1;" vertex="1" parent="1">
          <mxGeometry x="540" y="360" width="120" height="60" as="geometry" />
        </mxCell>
        <mxCell id="RjlD7E5bPbX68Lo8WS0Y-10" style="edgeStyle=orthogonalEdgeStyle;rounded=0;orthogonalLoop=1;jettySize=auto;html=1;exitX=0.75;exitY=1;exitDx=0;exitDy=0;startArrow=none;startFill=0;endArrow=block;endFill=1;" edge="1" parent="1" source="RjlD7E5bPbX68Lo8WS0Y-8">
          <mxGeometry relative="1" as="geometry">
            <mxPoint x="870" y="440" as="targetPoint" />
          </mxGeometry>
        </mxCell>
        <mxCell id="RjlD7E5bPbX68Lo8WS0Y-25" style="edgeStyle=orthogonalEdgeStyle;rounded=0;orthogonalLoop=1;jettySize=auto;html=1;exitX=0.5;exitY=0;exitDx=0;exitDy=0;startArrow=none;startFill=0;endArrow=none;endFill=0;" edge="1" parent="1" source="RjlD7E5bPbX68Lo8WS0Y-8">
          <mxGeometry relative="1" as="geometry">
            <mxPoint x="840" y="200" as="targetPoint" />
          </mxGeometry>
        </mxCell>
        <mxCell id="RjlD7E5bPbX68Lo8WS0Y-8" value="Return Celsius value" style="rounded=0;whiteSpace=wrap;html=1;" vertex="1" parent="1">
          <mxGeometry x="780" y="360" width="120" height="60" as="geometry" />
        </mxCell>
        <mxCell id="RjlD7E5bPbX68Lo8WS0Y-11" value="tempF" style="text;html=1;strokeColor=none;fillColor=none;align=center;verticalAlign=middle;whiteSpace=wrap;rounded=0;" vertex="1" parent="1">
          <mxGeometry x="190" y="360" width="40" height="20" as="geometry" />
        </mxCell>
        <mxCell id="RjlD7E5bPbX68Lo8WS0Y-12" value="tempC" style="text;html=1;strokeColor=none;fillColor=none;align=center;verticalAlign=middle;whiteSpace=wrap;rounded=0;" vertex="1" parent="1">
          <mxGeometry x="850" y="440" width="40" height="20" as="geometry" />
        </mxCell>
        <mxCell id="RjlD7E5bPbX68Lo8WS0Y-16" value="" style="endArrow=none;html=1;" edge="1" parent="1">
          <mxGeometry width="50" height="50" relative="1" as="geometry">
            <mxPoint x="240" y="200" as="sourcePoint" />
            <mxPoint x="840" y="200" as="targetPoint" />
          </mxGeometry>
        </mxCell>
        <mxCell id="RjlD7E5bPbX68Lo8WS0Y-24" style="edgeStyle=orthogonalEdgeStyle;rounded=0;orthogonalLoop=1;jettySize=auto;html=1;exitX=0.5;exitY=0;exitDx=0;exitDy=0;startArrow=none;startFill=0;endArrow=none;endFill=0;" edge="1" parent="1" source="RjlD7E5bPbX68Lo8WS0Y-23">
          <mxGeometry relative="1" as="geometry">
            <mxPoint x="720" y="200" as="targetPoint" />
          </mxGeometry>
        </mxCell>
        <mxCell id="RjlD7E5bPbX68Lo8WS0Y-23" value="Round to 1 decimal point" style="shape=process;whiteSpace=wrap;html=1;backgroundOutline=1;" vertex="1" parent="1">
          <mxGeometry x="660" y="240" width="120" height="60" as="geometry" />
        </mxCell>
      </root>
    </mxGraphModel>
  </diagram>
</mxfile>
